<svg width="38" height="281" viewBox="0 0 38 281" fill="none" xmlns="http://www.w3.org/2000/svg">
<path d="M20.7678 1.23153C19.7915 0.25522 18.2086 0.25522 17.2322 1.23153L1.32234 17.1414C0.346029 18.1177 0.346029 19.7007 1.32234 20.677C2.29865 21.6533 3.88156 21.6533 4.85787 20.677L19 6.53483L33.1421 20.677C34.1185 21.6533 35.7014 21.6533 36.6777 20.677C37.654 19.7007 37.654 18.1177 36.6777 17.1414L20.7678 1.23153ZM21.5 127.79L21.5 2.9993L16.5 2.9993L16.5 127.79L21.5 127.79Z" fill="url(#paint0_linear_988_175418)" fill-opacity="0.5"/>
<path d="M17.2322 279.768C18.2085 280.745 19.7914 280.745 20.7678 279.768L36.6777 263.859C37.654 262.882 37.654 261.299 36.6777 260.323C35.7013 259.347 34.1184 259.347 33.1421 260.323L19 274.465L4.85786 260.323C3.88154 259.347 2.29863 259.347 1.32232 260.323C0.34601 261.299 0.34601 262.882 1.32232 263.859L17.2322 279.768ZM16.5 153.21L16.5 278.001L21.5 278.001L21.5 153.21L16.5 153.21Z" fill="url(#paint1_linear_988_175418)" fill-opacity="0.5"/>
<defs>
<linearGradient id="paint0_linear_988_175418" x1="19" y1="127.79" x2="19" y2="2.9993" gradientUnits="userSpaceOnUse">
<stop stop-color="white" stop-opacity="0"/>
<stop offset="1" stop-color="white"/>
</linearGradient>
<linearGradient id="paint1_linear_988_175418" x1="19" y1="153.21" x2="19" y2="278.001" gradientUnits="userSpaceOnUse">
<stop stop-color="white" stop-opacity="0"/>
<stop offset="1" stop-color="white"/>
</linearGradient>
</defs>
</svg>
