<svg width="20" height="24" viewBox="0 0 20 24" fill="none" xmlns="http://www.w3.org/2000/svg">
<path d="M9.78764 23.2511C9.18821 23.1406 8.79938 22.7515 8.49678 22.259C8.15292 21.6991 7.87341 21.104 7.57184 20.5211C7.34927 20.0908 7.13062 19.6584 6.87566 19.2453C6.49632 18.6308 5.97321 18.1696 5.36676 17.7931C4.56146 17.2931 3.68624 16.9484 2.79926 16.6279C2.15609 16.3954 1.49787 16.2066 0.861309 15.956C0.637088 15.8677 0.421531 15.7601 0.236708 15.6006C0.152342 15.528 0.0832402 15.4432 0.0349719 15.3428C0.0223891 15.3166 -0.00153875 15.2858 0.0273397 15.2582C0.0506488 15.2359 0.0801461 15.2534 0.105105 15.2619C0.421118 15.3688 0.742494 15.4572 1.06572 15.5391C1.98654 15.7724 2.92137 15.9257 3.86487 16.0315C4.59571 16.1134 5.3286 16.1648 6.06315 16.1978C6.89794 16.2353 7.73273 16.2438 8.56794 16.2293C9.29258 16.2167 10.0172 16.1912 10.7408 16.1483C11.622 16.0961 12.502 16.028 13.3803 15.9403C14.2312 15.8554 15.0806 15.7561 15.9286 15.6437C17.097 15.489 18.2608 15.3065 19.4205 15.0975C19.576 15.0694 19.7307 15.0373 19.8858 15.0074C19.9124 15.0022 19.9446 14.9906 19.9638 15.0148C19.9873 15.0445 19.9623 15.0736 19.9465 15.0987C19.8792 15.2054 19.7874 15.2875 19.6841 15.3576C19.3835 15.5614 19.0457 15.678 18.6991 15.7685C18.0776 15.9309 17.4497 16.068 16.8414 16.2801C16.165 16.5161 15.5045 16.7844 14.8847 17.1481C14.1683 17.5683 13.6318 18.1545 13.2326 18.8783C12.8504 19.5714 12.5344 20.2965 12.179 21.0023C11.9145 21.5275 11.6468 22.0512 11.2738 22.5112C11.0486 22.7893 10.7936 23.0321 10.4549 23.1684C10.3724 23.2016 10.2856 23.2237 10.2006 23.2509L9.78764 23.2511Z" fill="white"/>
<path d="M7.71606 15.6677C7.34353 15.6741 6.73502 15.6584 6.12733 15.637C4.97385 15.5966 3.82221 15.5254 2.67574 15.3829C1.81578 15.2758 0.962005 15.137 0.120197 14.9289C-0.0184194 14.8946 -0.0254328 14.8802 0.0399564 14.7492C0.135668 14.5574 0.294293 14.4266 0.47169 14.3175C0.892078 14.0588 1.35682 13.909 1.82795 13.7789C2.61612 13.5608 3.41688 13.39 4.19743 13.1433C4.96044 12.9024 5.68261 12.5821 6.29648 12.0538C6.85404 11.574 7.28 10.9921 7.62035 10.3438C8.13006 9.37346 8.43576 8.33404 8.66637 7.26904C8.89204 6.22674 9.02756 5.17061 9.14101 4.11139C9.20227 3.54083 9.23053 2.9678 9.27199 2.3958C9.31201 1.84401 9.36461 1.29305 9.51189 0.756534C9.56202 0.573774 9.62555 0.395759 9.72291 0.232183C9.8935 -0.0547453 10.3368 -0.0809422 10.5422 0.182677C10.6544 0.326863 10.7143 0.494771 10.7611 0.668248C10.844 0.974979 10.8797 1.28955 10.9016 1.60474C10.961 2.4682 11.016 3.33167 11.107 4.19287C11.2384 5.43774 11.4146 6.67497 11.7116 7.8922C11.9412 8.83323 12.2475 9.74558 12.6982 10.6082C13.1828 11.536 13.9018 12.1965 14.8602 12.6126C15.7315 12.9909 16.6438 13.2329 17.5593 13.4682C18.0917 13.6052 18.6309 13.7164 19.1552 13.8837C19.3791 13.955 19.5938 14.046 19.777 14.1986C19.863 14.2704 19.9306 14.3558 19.9744 14.459C20.0206 14.5681 20.0111 14.5899 19.8945 14.6128C19.5676 14.6772 19.2404 14.7416 18.9125 14.7995C18.0733 14.9476 17.229 15.0615 16.3831 15.1613C15.6634 15.2461 14.9427 15.3195 14.2205 15.382C13.5361 15.4412 12.8511 15.4895 12.1656 15.5349C11.7133 15.5648 11.2601 15.583 10.8071 15.603C9.85596 15.645 8.904 15.6617 7.71606 15.6677Z" fill="white"/>
</svg>

