<svg width="14197" height="708" viewBox="0 0 14197 708" fill="none" xmlns="http://www.w3.org/2000/svg">
<rect x="6100" width="7697" height="18.3809" fill="#0289EC"/>
<rect x="4400" width="1697" height="18.3809" fill="#0289EC"/>
<rect x="3500" width="897" height="18.3809" fill="#0289EC"/>
<rect x="2300" width="1197" height="18.3809" fill="#0289EC"/>
<rect x="1900" width="397" height="18.3809" fill="#0289EC"/>
<rect x="1500" width="397" height="18.3809" fill="#0289EC"/>
<rect x="13800" width="197" height="18.3809" fill="#0289EC"/>
<rect x="6100" y="25.4512" width="297" height="14.1406" fill="#CC00FF"/>
<rect x="6000" y="25.4512" width="97" height="14.1406" fill="#CC00FF"/>
<rect x="4100" y="25.4512" width="197" height="14.1406" fill="#CC00FF"/>
<rect x="6100" y="41.002" width="297" height="14.1406" fill="#F500BD"/>
<rect x="6000" y="41.002" width="97" height="14.1406" fill="#F500BD"/>
<rect x="6100" y="56.5527" width="297" height="14.1406" fill="#E20087"/>
<rect x="6000" y="56.5527" width="97" height="14.1406" fill="#E20087"/>
<rect x="6100" y="72.1328" width="297" height="14.1113" fill="#D0014B"/>
<rect x="3900" y="72.1328" width="497" height="14.1113" fill="#D0014B"/>
<rect x="4400" y="72.1328" width="997" height="14.1113" fill="#D0014B"/>
<rect x="6100" y="87.6543" width="297" height="14.1406" fill="#E63432"/>
<rect x="6100" y="103.205" width="297" height="14.1406" fill="#F0511E"/>
<rect x="6000" y="103.205" width="97" height="14.1406" fill="#F0511E"/>
<rect x="4100" y="103.205" width="297" height="14.1406" fill="#F0511E"/>
<rect x="6100" y="118.756" width="297" height="14.1406" fill="#FF7902"/>
<rect x="6000" y="118.756" width="97" height="14.1406" fill="#FF7902"/>
<rect x="14000" width="197" height="18.38" fill="#0289EC"/>
<rect x="13400" y="141.439" width="297" height="18.3809" fill="#0289EC"/>
<rect x="13800" y="25.4512" width="197" height="14.1406" fill="#CC00FF"/>
<rect x="14000" y="25.4512" width="197" height="14.1406" fill="#CC00FF"/>
<rect x="13800" y="41.002" width="197" height="14.1406" fill="#F500BD"/>
<rect x="13800" y="56.5527" width="197" height="14.1406" fill="#E20087"/>
<rect x="13800" y="72.1328" width="197" height="14.1113" fill="#D0014B"/>
<rect x="13800" y="87.6543" width="197" height="14.1406" fill="#E63432"/>
<rect x="13800" y="103.205" width="197" height="14.1406" fill="#F0511E"/>
<rect x="13800" y="118.756" width="197" height="14.1406" fill="#FF7902"/>
<rect x="13700" y="25.4512" width="97" height="14.1406" fill="#CC00FF"/>
<rect x="13700" y="41.002" width="97" height="14.1406" fill="#F500BD"/>
<rect x="13700" y="56.5527" width="97" height="14.1406" fill="#E20087"/>
<rect x="13700" y="72.1328" width="97" height="14.1113" fill="#D0014B"/>
<rect x="13700" y="87.6543" width="97" height="14.1406" fill="#E63432"/>
<rect x="13700" y="103.205" width="97" height="14.1406" fill="#F0511E"/>
<rect x="13700" y="118.756" width="97" height="14.1406" fill="#FF7902"/>
<rect x="6400" y="141.439" width="297" height="18.3809" fill="#0289EC"/>
<rect x="8402" y="141.439" width="2099" height="18.3809" fill="#0289EC"/>
<rect x="8500" y="282.879" width="897" height="18.3828" fill="#0289EC"/>
<rect x="9400" y="282.879" width="397" height="18.3828" fill="#0289EC"/>
<rect x="9800" y="282.879" width="2197" height="18.3828" fill="#0289EC"/>
<rect x="9800" y="424.32" width="2797" height="18.5442" fill="#0289EC"/>
<rect x="11500" y="565.762" width="2197" height="18.5081" fill="#0289EC"/>
<rect x="12000" y="282.879" width="897" height="18.3828" fill="#0289EC"/>
<rect x="12901" y="282.879" width="496" height="18.3828" fill="#0289EC"/>
<rect x="10504" y="141.439" width="2893" height="18.3809" fill="#0289EC"/>
<rect x="6700" y="166.891" width="1797" height="14.1406" fill="#CC00FF"/>
<rect x="6700" y="182.441" width="1797" height="14.1406" fill="#F500BD"/>
<rect x="6700" y="197.992" width="1797" height="14.1406" fill="#E20087"/>
<rect x="6700" y="213.543" width="1797" height="14.1406" fill="#D0014B"/>
<rect x="6700" y="229.094" width="1797" height="14.1406" fill="#E63432"/>
<rect x="6700" y="244.645" width="1797" height="14.1406" fill="#F0511E"/>
<rect x="6701" y="245.645" width="1795" height="12.1406" stroke="white" stroke-opacity="0.8" stroke-width="2"/>
<rect x="6700" y="260.195" width="1797" height="14.1414" fill="#FF7902"/>
<rect x="8500" y="308.332" width="897" height="14.1406" fill="#CC00FF"/>
<rect x="8500" y="323.883" width="897" height="14.1406" fill="#F500BD"/>
<rect x="8501" y="324.883" width="895" height="12.1406" stroke="white" stroke-opacity="0.8" stroke-width="2"/>
<path d="M9800 323.883H11997V338.023H9800V323.883Z" fill="#F500BD"/>
<path d="M9801 324.883H11996V337.023H9801V324.883Z" stroke="white" stroke-opacity="0.8" stroke-width="2"/>
<path d="M12000 323.883H12897V338.023H12000V323.883Z" fill="#F500BD"/>
<path d="M12001 324.883H12896V337.023H12001V324.883Z" stroke="white" stroke-opacity="0.8" stroke-width="2"/>
<path d="M12901 323.883H13397V338.023H12901V323.883Z" fill="#F500BD"/>
<path d="M12902 324.883H13396V337.023H12902V324.883Z" stroke="white" stroke-opacity="0.8" stroke-width="2"/>
<rect x="13400" y="182.441" width="297" height="14.1406" fill="#F500BD"/>
<rect x="8500" y="339.434" width="897" height="14.1406" fill="#E20087"/>
<rect x="8500" y="354.984" width="897" height="14.1406" fill="#D0014B"/>
<rect x="8500" y="370.535" width="897" height="14.1406" fill="#E63432"/>
<rect x="8500" y="401.637" width="897" height="14.1406" fill="#FF7902"/>
<rect x="9400" y="308.332" width="397" height="14.1406" fill="#CC00FF"/>
<rect x="9400" y="323.883" width="397" height="14.1406" fill="#F500BD"/>
<rect x="9401" y="324.883" width="395" height="12.1406" stroke="white" stroke-opacity="0.8" stroke-width="2"/>
<rect x="9400" y="339.434" width="397" height="14.1406" fill="#E20087"/>
<rect x="9400" y="354.984" width="397" height="14.1406" fill="#D0014B"/>
<rect x="9400" y="370.535" width="397" height="14.1406" fill="#E63432"/>
<rect x="9400" y="401.637" width="397" height="14.1406" fill="#FF7902"/>
<rect x="8500" y="244.645" width="4897" height="14.1406" fill="#F0511E"/>
<rect x="8501" y="245.645" width="4895" height="12.1406" stroke="white" stroke-opacity="0.8" stroke-width="2"/>
<rect x="13400" y="244.645" width="297" height="14.1406" fill="#F0511E"/>
<rect x="13401" y="245.645" width="295" height="12.1406" stroke="white" stroke-opacity="0.8" stroke-width="2"/>
<rect x="6400" y="166.891" width="297" height="14.1406" fill="#CC00FF"/>
<rect x="5400" y="166.891" width="597" height="14.1406" fill="#CC00FF"/>
<rect x="5401" y="167.891" width="595" height="12.1406" stroke="white" stroke-opacity="0.8" stroke-width="2"/>
<rect x="4300" y="166.891" width="97" height="14.1406" fill="#CC00FF"/>
<rect x="4301" y="167.891" width="95" height="12.1406" stroke="white" stroke-opacity="0.8" stroke-width="2"/>
<rect x="6400" y="182.441" width="297" height="14.1406" fill="#F500BD"/>
<rect x="6400" y="197.992" width="297" height="14.1406" fill="#E20087"/>
<rect x="5400" y="197.992" width="597" height="14.1406" fill="#E20087"/>
<rect x="6400" y="213.543" width="297" height="14.1406" fill="#D0014B"/>
<rect x="6400" y="229.094" width="297" height="14.1406" fill="#E63432"/>
<rect x="6400" y="244.645" width="297" height="14.1406" fill="#F0511E"/>
<rect x="6401" y="245.645" width="295" height="12.1406" stroke="white" stroke-opacity="0.8" stroke-width="2"/>
<rect x="6400" y="260.195" width="297" height="14.1414" fill="#FF7902"/>
<rect x="9800" y="449.773" width="1697" height="14.1406" fill="#CC00FF"/>
<rect x="9800" y="480.875" width="1697" height="14.1406" fill="#E20087"/>
<rect x="9800" y="496.426" width="1697" height="14.1406" fill="#D0014B"/>
<rect x="9800" y="511.977" width="1697" height="14.1406" fill="#E63432"/>
<rect x="11500" y="591.213" width="2197" height="14.1406" fill="#CC00FF"/>
<rect x="11500" y="622.314" width="1697" height="14.1406" fill="#E20087"/>
<rect x="11500" y="637.865" width="2197" height="14.1406" fill="#D0014B"/>
<rect x="11500" y="653.416" width="1097" height="14.1406" fill="#E63432"/>
<rect x="11500" y="543.078" width="1097" height="14.1405" fill="#FF7902"/>
<rect x="11501" y="544.078" width="1095" height="12.1405" stroke="white" stroke-opacity="0.8" stroke-width="2"/>
<rect x="12600" y="543.078" width="597" height="14.1405" fill="#FF7902"/>
<rect x="12601" y="544.078" width="595" height="12.1405" stroke="white" stroke-opacity="0.8" stroke-width="2"/>
<rect x="9800" y="543.078" width="1697" height="14.1405" fill="#FF7902"/>
<rect x="9801" y="544.078" width="1695" height="12.1405" stroke="white" stroke-opacity="0.8" stroke-width="2"/>
<rect x="12600" y="424.32" width="597" height="18.5442" fill="#0289EC"/>
<rect x="4400" y="118.756" width="997" height="14.1406" fill="#FF7902"/>
<rect x="3500" y="118.756" width="897" height="14.1406" fill="#FF7902"/>
<rect x="12600" y="511.977" width="597" height="14.1406" fill="#E63432"/>
<path d="M200 0H1497V18.3809H200V0Z" fill="#0289EC"/>
<rect x="1000" y="141.439" width="400" height="18.3809" fill="#0289EC"/>
<rect x="200" y="282.879" width="797" height="18.3828" fill="#0289EC"/>
<rect y="565.762" width="198" height="18.3809" fill="#0289EC"/>
<rect y="591.213" width="198" height="14.1406" fill="#CC00FF"/>
<rect x="200" y="308.332" width="797" height="14.1406" fill="#CC00FF"/>
<rect y="637.865" width="198" height="14.1406" fill="#D0014B"/>
<rect x="201" y="324.883" width="795" height="12.1406" fill="#F500BD" stroke="white" stroke-width="2"/>
<rect x="200" y="354.984" width="797" height="14.1406" fill="#D0014B"/>
<rect x="1000" y="166.891" width="397" height="14.1406" fill="#CC00FF"/>
<rect x="1000" y="182.441" width="397" height="14.1406" fill="#F500BD"/>
<rect x="1001" y="183.441" width="395" height="12.1406" stroke="white" stroke-opacity="0.8" stroke-width="2"/>
<rect x="1000" y="213.543" width="397" height="14.1406" fill="#D0014B"/>
<rect x="6700" y="141.439" width="1700" height="18.3809" fill="#0289EC"/>
<rect x="1500" y="72.1328" width="397" height="14.1113" fill="#D0014B"/>
<rect x="1900" y="72.1328" width="397" height="14.1113" fill="#D0014B"/>
<rect x="1500" y="41.002" width="397" height="14.1406" fill="#F500BD"/>
<rect x="1500" y="41.002" width="397" height="14.1406" fill="#F500BD"/>
<rect x="1500" y="25.4512" width="397" height="14.1406" fill="#CC00FF"/>
<rect x="1400" y="25.4512" width="97" height="14.1406" fill="#CC00FF"/>
<rect x="1400" y="41.002" width="97" height="14.1406" fill="#F500BD"/>
<rect x="1400" y="72.1328" width="97" height="14.1113" fill="#D0014B"/>
<rect x="1900" y="41.002" width="1597" height="14.1406" fill="#F500BD"/>
<rect x="1900" y="25.4512" width="397" height="14.1406" fill="#CC00FF"/>
<rect x="2300" y="25.4512" width="397" height="14.1406" fill="#CC00FF"/>
<rect x="2700" y="166.891" width="197" height="14.1406" fill="#CC00FF"/>
<rect x="2701" y="167.891" width="195" height="12.1406" stroke="white" stroke-opacity="0.8" stroke-width="2"/>
<rect x="2900" y="25.4512" width="97" height="14.1406" fill="#CC00FF"/>
<rect x="3000" y="166.891" width="297" height="14.1406" fill="#CC00FF"/>
<rect x="3001" y="167.891" width="295" height="12.1406" stroke="white" stroke-opacity="0.8" stroke-width="2"/>
<rect x="3500" y="25.4512" width="600" height="14.1406" fill="#CC00FF"/>
<rect x="3300" y="25.4512" width="197" height="14.1406" fill="#CC00FF"/>
<rect x="13201" y="339.434" width="196" height="14.1406" fill="#E20087"/>
<rect x="13400" y="197.992" width="297" height="14.1406" fill="#E20087"/>
<rect x="13201" y="370.535" width="196" height="14.1406" fill="#E63432"/>
<rect x="13400" y="229.094" width="297" height="14.1406" fill="#E63432"/>
<rect x="13201" y="401.637" width="196" height="14.1406" fill="#FF7902"/>
<rect x="13400" y="260.195" width="297" height="14.1414" fill="#FF7902"/>
<rect x="4400" y="25.4512" width="997" height="14.1406" fill="#CC00FF"/>
<rect x="4400" y="41.002" width="997" height="14.1406" fill="#F500BD"/>
<rect x="4400" y="56.5527" width="997" height="14.1406" fill="#E20087"/>
<rect x="2700" y="141.439" width="597" height="18.3809" fill="#0289EC"/>
<rect x="4300" y="141.439" width="97" height="18.3809" fill="#0289EC"/>
<rect x="2300" y="56.5527" width="397" height="14.1406" fill="#E20087"/>
<rect x="2700" y="197.992" width="197" height="14.1406" fill="#E20087"/>
<rect x="2999" y="197.992" width="298" height="14.1406" fill="#E20087"/>
<rect x="2900" y="56.5527" width="97" height="14.1406" fill="#E20087"/>
<rect x="3300" y="56.5527" width="200" height="14.1406" fill="#E20087"/>
<rect x="5400" y="141.439" width="597" height="18.3809" fill="#0289EC"/>
</svg>
