<?xml version="1.0" encoding="UTF-8"?>
<svg id="Layer_2" data-name="Layer 2" xmlns="http://www.w3.org/2000/svg" xmlns:xlink="http://www.w3.org/1999/xlink" viewBox="0 0 107.89 206.32">
  <defs>
    <style>
      .cls-1 {
        fill: url(#linear-gradient-2);
      }

      .cls-1, .cls-2 {
        opacity: .5;
        stroke-width: 0px;
      }

      .cls-2 {
        fill: url(#linear-gradient);
      }
    </style>
    <linearGradient id="linear-gradient" x1="19.41" y1=".19" x2="19.41" y2="154.36" gradientUnits="userSpaceOnUse">
      <stop offset="0" stop-color="#fff"/>
      <stop offset="1" stop-color="#fff" stop-opacity="0"/>
    </linearGradient>
    <linearGradient id="linear-gradient-2" x1="73.36" y1="60.11" x2="73.36" y2="205.98" xlink:href="#linear-gradient"/>
  </defs>
  <g id="Layer_1-2" data-name="Layer 1">
    <path class="cls-2" d="m38.16,18.9L21.39.86c-1.06-1.14-2.88-1.14-3.94,0L.67,18.9c-.94,1.01-.88,2.59.13,3.53h0c1.01.94,2.6.89,3.54-.13l12.58-13.53v143.18c0,1.33.95,2.55,2.28,2.67,1.48.13,2.72-1.04,2.72-2.49V8.77l12.58,13.54c.94,1.01,2.53,1.07,3.54.13,1.01-.94,1.07-2.52.13-3.53Z"/>
    <path class="cls-1" d="m89.37,62.18c-10.21,0-18.51,8.31-18.51,18.51v7.9c-3.38-3.62-8.18-5.9-13.52-5.9-10.21,0-18.52,8.31-18.52,18.51v105.12h5v-105.12c0-7.45,6.06-13.51,13.52-13.51s13.52,6.06,13.52,13.51v105.12h5v-125.63c0-7.45,6.06-13.51,13.51-13.51s13.52,6.06,13.52,13.51v125.63h5v-125.63c0-10.21-8.31-18.51-18.52-18.51Z"/>
  </g>
</svg>