<svg width="15000" height="900" viewBox="0 0 15000 900" xmlns="http://www.w3.org/2000/svg" xmlns:xlink="http://www.w3.org/1999/xlink"><g id="Cobb"><g><line x1="0" y1="760" x2="200" y2="760" stroke="#f1bc00" stroke-width="18"/></g><g><line x1="200" y1="400" x2="1000" y2="400" stroke="#f1bc00" stroke-width="18"/></g><g><line x1="1000" y1="220" x2="1400" y2="220" stroke="#f1bc00" stroke-width="18"/></g><g><line x1="1400" y1="40" x2="2700" y2="40" stroke="#f1bc00" stroke-width="18"/></g><g><line x1="2700" y1="220" x2="2900" y2="220" stroke="#f1bc00" stroke-width="18"/></g><g><line x1="2900" y1="40" x2="3000" y2="40" stroke="#f1bc00" stroke-width="18"/></g><g><line x1="3000" y1="220" x2="3300" y2="220" stroke="#f1bc00" stroke-width="18"/></g><g><line x1="3300" y1="40" x2="4300" y2="40" stroke="#f1bc00" stroke-width="18"/></g><g><line x1="4300" y1="220" x2="4400" y2="220" stroke="#f1bc00" stroke-width="18"/></g><g><line x1="5400" y1="220" x2="6000" y2="220" stroke="#f1bc00" stroke-width="18"/></g><g><line x1="6000" y1="40" x2="6400" y2="40" stroke="#f1bc00" stroke-width="18"/></g><g><line x1="6400" y1="220" x2="8500" y2="220" stroke="#f1bc00" stroke-width="18"/></g><g><line x1="8500" y1="400" x2="9800" y2="400" stroke="#f1bc00" stroke-width="18"/></g><g><line x1="9800" y1="580" x2="11500" y2="580" stroke="#f1bc00" stroke-width="18"/></g><g><line x1="11500" y1="760" x2="13700" y2="760" stroke="#f1bc00" stroke-width="18"/></g><g><line x1="13700" y1="40" x2="14200" y2="40" stroke="#f1bc00" stroke-width="18"/></g></g><g id="Arthur"><g><line x1="200" y1="420" x2="1000" y2="420" stroke="#f79a10" stroke-width="18"/></g><g><line x1="1000" y1="240" x2="1400" y2="240" stroke="#f79a10" stroke-width="18"/></g><g><line x1="1400" y1="60" x2="3500" y2="60" stroke="#f79a10" stroke-width="18"/></g><g><line x1="4400" y1="60" x2="5400" y2="60" stroke="#f79a10" stroke-width="18"/></g><g><line x1="6000" y1="60" x2="6400" y2="60" stroke="#f79a10" stroke-width="18"/></g><g><line x1="6400" y1="240" x2="8500" y2="240" stroke="#f79a10" stroke-width="18"/></g><g><line x1="8500" y1="420" x2="13400" y2="420" stroke="#f79a10" stroke-width="18"/></g><g><line x1="13400" y1="240" x2="13700" y2="240" stroke="#f79a10" stroke-width="18"/></g><g><line x1="13700" y1="60" x2="14000" y2="60" stroke="#f79a10" stroke-width="18"/></g></g><g id="Arianna"><g><line x1="2300" y1="80" x2="2700" y2="80" stroke="#f17522" stroke-width="18"/></g><g><line x1="2700" y1="260" x2="2900" y2="260" stroke="#f17522" stroke-width="18"/></g><g><line x1="2900" y1="80" x2="3000" y2="80" stroke="#f17522" stroke-width="18"/></g><g><line x1="3000" y1="260" x2="3300" y2="260" stroke="#f17522" stroke-width="18"/></g><g><line x1="3300" y1="80" x2="3500" y2="80" stroke="#f17522" stroke-width="18"/></g><g><line x1="4400" y1="80" x2="5400" y2="80" stroke="#f17522" stroke-width="18"/></g><g><line x1="5400" y1="260" x2="6000" y2="260" stroke="#f17522" stroke-width="18"/></g><g><line x1="6000" y1="80" x2="6400" y2="80" stroke="#f17522" stroke-width="18"/></g><g><line x1="6400" y1="260" x2="8500" y2="260" stroke="#f17522" stroke-width="18"/></g><g><line x1="8500" y1="440" x2="9800" y2="440" stroke="#f17522" stroke-width="18"/></g><g><line x1="9800" y1="620" x2="11500" y2="620" stroke="#f17522" stroke-width="18"/></g><g><line x1="11500" y1="800" x2="13200" y2="800" stroke="#f17522" stroke-width="18"/></g><g><line x1="13200" y1="440" x2="13400" y2="440" stroke="#f17522" stroke-width="18"/></g><g><line x1="13400" y1="260" x2="13700" y2="260" stroke="#f17522" stroke-width="18"/></g><g><line x1="13700" y1="80" x2="14000" y2="80" stroke="#f17522" stroke-width="18"/></g></g><g id="Saito"><g><line x1="0" y1="820" x2="200" y2="820" stroke="#eb5831" stroke-width="18"/></g><g><line x1="200" y1="460" x2="1000" y2="460" stroke="#eb5831" stroke-width="18"/></g><g><line x1="1000" y1="280" x2="1400" y2="280" stroke="#eb5831" stroke-width="18"/></g><g><line x1="1400" y1="100" x2="2300" y2="100" stroke="#eb5831" stroke-width="18"/></g><g><line x1="3900" y1="100" x2="5400" y2="100" stroke="#eb5831" stroke-width="18"/></g><g><line x1="6100" y1="100" x2="6400" y2="100" stroke="#eb5831" stroke-width="18"/></g><g><line x1="6400" y1="280" x2="8500" y2="280" stroke="#eb5831" stroke-width="18"/></g><g><line x1="8500" y1="460" x2="9800" y2="460" stroke="#eb5831" stroke-width="18"/></g><g><line x1="9800" y1="640" x2="11500" y2="640" stroke="#eb5831" stroke-width="18"/></g><g><line x1="11500" y1="820" x2="13700" y2="820" stroke="#eb5831" stroke-width="18"/></g><g><line x1="13700" y1="100" x2="14000" y2="100" stroke="#eb5831" stroke-width="18"/></g></g><g id="Fischer"><g><line x1="6100" y1="120" x2="6400" y2="120" stroke="#e53a40" stroke-width="18"/></g><g><line x1="6400" y1="300" x2="8500" y2="300" stroke="#e53a40" stroke-width="18"/></g><g><line x1="8500" y1="480" x2="9800" y2="480" stroke="#e53a40" stroke-width="18"/></g><g><line x1="9800" y1="660" x2="11500" y2="660" stroke="#e53a40" stroke-width="18"/></g><g><line x1="11500" y1="840" x2="12600" y2="840" stroke="#e53a40" stroke-width="18"/></g><g><line x1="12600" y1="660" x2="13200" y2="660" stroke="#e53a40" stroke-width="18"/></g><g><line x1="13200" y1="480" x2="13400" y2="480" stroke="#e53a40" stroke-width="18"/></g><g><line x1="13400" y1="300" x2="13700" y2="300" stroke="#e53a40" stroke-width="18"/></g><g><line x1="13700" y1="120" x2="14000" y2="120" stroke="#e53a40" stroke-width="18"/></g></g><g id="Yusuf"><g><line x1="4100" y1="140" x2="4400" y2="140" stroke="#e53a40" stroke-width="18"/></g><g><line x1="6000" y1="140" x2="6400" y2="140" stroke="#e53a40" stroke-width="18"/></g><g><line x1="6400" y1="320" x2="13700" y2="320" stroke="#e53a40" stroke-width="18"/></g><g><line x1="13700" y1="140" x2="14000" y2="140" stroke="#e53a40" stroke-width="18"/></g></g><g id="Eames"><g><line x1="3500" y1="160" x2="5400" y2="160" stroke="#a7084a" stroke-width="18"/></g><g><line x1="6000" y1="160" x2="6400" y2="160" stroke="#a7084a" stroke-width="18"/></g><g><line x1="6400" y1="340" x2="8500" y2="340" stroke="#a7084a" stroke-width="18"/></g><g><line x1="8500" y1="520" x2="9800" y2="520" stroke="#a7084a" stroke-width="18"/></g><g><line x1="9800" y1="700" x2="13200" y2="700" stroke="#a7084a" stroke-width="18"/></g><g><line x1="13200" y1="520" x2="13400" y2="520" stroke="#a7084a" stroke-width="18"/></g><g><line x1="13400" y1="340" x2="13700" y2="340" stroke="#a7084a" stroke-width="18"/></g><g><line x1="13700" y1="160" x2="14000" y2="160" stroke="#a7084a" stroke-width="18"/></g></g></svg>