<svg width="1201" height="1665" viewBox="0 0 1201 1665" fill="none" xmlns="http://www.w3.org/2000/svg">
<g clip-path="url(#clip0_112_87264)">
<path d="M0 1480V1665" stroke="white" stroke-opacity="0.3"/>
<path d="M6.25 1480V1665" stroke="white" stroke-opacity="0.3"/>
<path d="M12.5 1480V1665" stroke="white" stroke-opacity="0.3"/>
<path d="M18.75 1480V1665" stroke="white" stroke-opacity="0.3"/>
<path d="M25 1480V1665" stroke="white" stroke-opacity="0.3"/>
<path d="M31.25 1480V1665" stroke="white" stroke-opacity="0.3"/>
<path d="M37.5 1480V1665" stroke="white" stroke-opacity="0.3"/>
<path d="M43.75 1480V1665" stroke="white" stroke-opacity="0.3"/>
<path d="M50 1480V1665" stroke="white" stroke-opacity="0.3"/>
<path d="M56.25 1480V1665" stroke="white" stroke-opacity="0.3"/>
<path d="M62.5 1480V1665" stroke="white" stroke-opacity="0.3"/>
<path d="M68.75 1480V1665" stroke="white" stroke-opacity="0.3"/>
<path d="M75 1480V1665" stroke="white" stroke-opacity="0.3"/>
<path d="M81.25 1480V1665" stroke="white" stroke-opacity="0.3"/>
<path d="M87.5 1480V1665" stroke="white" stroke-opacity="0.3"/>
<path d="M93.75 1480V1665" stroke="white" stroke-opacity="0.3"/>
<path d="M100 1480V1665" stroke="white" stroke-opacity="0.3"/>
<path d="M106.25 1480V1665" stroke="white" stroke-opacity="0.3"/>
<path d="M112.5 1480V1665" stroke="white" stroke-opacity="0.3"/>
<path d="M118.75 1480V1665" stroke="white" stroke-opacity="0.3"/>
<path d="M125 1480V1665" stroke="white" stroke-opacity="0.3"/>
<path d="M131.25 1480V1665" stroke="white" stroke-opacity="0.3"/>
<path d="M137.5 1480V1665" stroke="white" stroke-opacity="0.3"/>
<path d="M143.75 1480V1665" stroke="white" stroke-opacity="0.3"/>
<path d="M150 1480V1665" stroke="white" stroke-opacity="0.3"/>
<path d="M156.25 1480V1665" stroke="white" stroke-opacity="0.3"/>
<path d="M162.5 1480V1665" stroke="white" stroke-opacity="0.3"/>
<path d="M168.75 1480V1665" stroke="white" stroke-opacity="0.3"/>
<path d="M175 1480V1665" stroke="white" stroke-opacity="0.3"/>
<path d="M181.25 1480V1665" stroke="white" stroke-opacity="0.3"/>
<path d="M187.5 1480V1665" stroke="white" stroke-opacity="0.3"/>
<path d="M193.75 1480V1665" stroke="white" stroke-opacity="0.3"/>
<path d="M200 1480V1665" stroke="white" stroke-opacity="0.3"/>
<path d="M206.25 1480V1665" stroke="white" stroke-opacity="0.3"/>
<path d="M212.5 1480V1665" stroke="white" stroke-opacity="0.3"/>
<path d="M218.75 1480V1665" stroke="white" stroke-opacity="0.3"/>
<path d="M225 1480V1665" stroke="white" stroke-opacity="0.3"/>
<path d="M231.25 1480V1665" stroke="white" stroke-opacity="0.3"/>
<path d="M237.5 1480V1665" stroke="white" stroke-opacity="0.3"/>
<path d="M243.75 1480V1665" stroke="white" stroke-opacity="0.3"/>
<path d="M250 1480V1665" stroke="white" stroke-opacity="0.3"/>
<path d="M256.25 1480V1665" stroke="white" stroke-opacity="0.3"/>
<path d="M262.5 1480V1665" stroke="white" stroke-opacity="0.3"/>
<path d="M268.75 1480V1665" stroke="white" stroke-opacity="0.3"/>
<path d="M275 1480V1665" stroke="white" stroke-opacity="0.3"/>
<path d="M281.25 1480V1665" stroke="white" stroke-opacity="0.3"/>
<path d="M287.5 1480V1665" stroke="white" stroke-opacity="0.3"/>
<path d="M293.75 1480V1665" stroke="white" stroke-opacity="0.3"/>
<path d="M300 1480V1665" stroke="white" stroke-opacity="0.3"/>
<path d="M306.25 1480V1665" stroke="white" stroke-opacity="0.3"/>
<path d="M312.5 1480V1665" stroke="white" stroke-opacity="0.3"/>
<path d="M318.75 1480V1665" stroke="white" stroke-opacity="0.3"/>
<path d="M325 1480V1665" stroke="white" stroke-opacity="0.3"/>
<path d="M331.25 1480V1665" stroke="white" stroke-opacity="0.3"/>
<path d="M337.5 1480V1665" stroke="white" stroke-opacity="0.3"/>
<path d="M343.75 1480V1665" stroke="white" stroke-opacity="0.3"/>
<path d="M350 1480V1665" stroke="white" stroke-opacity="0.3"/>
<path d="M356.25 1480V1665" stroke="white" stroke-opacity="0.3"/>
<path d="M362.5 1480V1665" stroke="white" stroke-opacity="0.3"/>
<path d="M368.75 1480V1665" stroke="white" stroke-opacity="0.3"/>
<path d="M375 1480V1665" stroke="white" stroke-opacity="0.3"/>
<path d="M381.25 1480V1665" stroke="white" stroke-opacity="0.3"/>
<path d="M387.5 1480V1665" stroke="white" stroke-opacity="0.3"/>
<path d="M393.75 1480V1665" stroke="white" stroke-opacity="0.3"/>
<path d="M400 1480V1665" stroke="white" stroke-opacity="0.3"/>
<path d="M406.25 1480V1665" stroke="white" stroke-opacity="0.3"/>
<path d="M412.5 1480V1665" stroke="white" stroke-opacity="0.3"/>
<path d="M418.75 1480V1665" stroke="white" stroke-opacity="0.3"/>
<path d="M425 1480V1665" stroke="white" stroke-opacity="0.3"/>
<path d="M431.25 1480V1665" stroke="white" stroke-opacity="0.3"/>
<path d="M437.5 1480V1665" stroke="white" stroke-opacity="0.3"/>
<path d="M443.75 1480V1665" stroke="white" stroke-opacity="0.3"/>
<path d="M450 1480V1665" stroke="white" stroke-opacity="0.3"/>
<path d="M456.25 1480V1665" stroke="white" stroke-opacity="0.3"/>
<path d="M462.5 1480V1665" stroke="white" stroke-opacity="0.3"/>
<path d="M468.75 1480V1665" stroke="white" stroke-opacity="0.3"/>
<path d="M475 1480V1665" stroke="white" stroke-opacity="0.3"/>
<path d="M481.25 1480V1665" stroke="white" stroke-opacity="0.3"/>
<path d="M487.5 1480V1665" stroke="white" stroke-opacity="0.3"/>
<path d="M493.75 1480V1665" stroke="white" stroke-opacity="0.3"/>
<path d="M500 1480V1665" stroke="white" stroke-opacity="0.3"/>
<path d="M506.25 1480V1665" stroke="white" stroke-opacity="0.3"/>
<path d="M512.5 1480V1665" stroke="white" stroke-opacity="0.3"/>
<path d="M518.75 1480V1665" stroke="white" stroke-opacity="0.3"/>
<path d="M525 1480V1665" stroke="white" stroke-opacity="0.3"/>
<path d="M531.25 1480V1665" stroke="white" stroke-opacity="0.3"/>
<path d="M537.5 1480V1665" stroke="white" stroke-opacity="0.3"/>
<path d="M543.75 1480V1665" stroke="white" stroke-opacity="0.3"/>
<path d="M550 1480V1665" stroke="white" stroke-opacity="0.3"/>
<path d="M556.25 1480V1665" stroke="white" stroke-opacity="0.3"/>
<path d="M562.5 1480V1665" stroke="white" stroke-opacity="0.3"/>
<path d="M568.75 1480V1665" stroke="white" stroke-opacity="0.3"/>
<path d="M575 1480V1665" stroke="white" stroke-opacity="0.3"/>
<path d="M581.25 1480V1665" stroke="white" stroke-opacity="0.3"/>
<path d="M587.5 1480V1665" stroke="white" stroke-opacity="0.3"/>
<path d="M593.75 1480V1665" stroke="white" stroke-opacity="0.3"/>
<path d="M600 1480V1665" stroke="white" stroke-opacity="0.3"/>
<path d="M606.25 1480V1665" stroke="white" stroke-opacity="0.3"/>
<path d="M612.5 1480V1665" stroke="white" stroke-opacity="0.3"/>
<path d="M618.75 1480V1665" stroke="white" stroke-opacity="0.3"/>
<path d="M625 1480V1665" stroke="white" stroke-opacity="0.3"/>
<path d="M631.25 1480V1665" stroke="white" stroke-opacity="0.3"/>
<path d="M637.5 1480V1665" stroke="white" stroke-opacity="0.3"/>
<path d="M643.75 1480V1665" stroke="white" stroke-opacity="0.3"/>
<path d="M650 1480V1665" stroke="white" stroke-opacity="0.3"/>
<path d="M656.25 1480V1665" stroke="white" stroke-opacity="0.3"/>
<path d="M662.5 1480V1665" stroke="white" stroke-opacity="0.3"/>
<path d="M668.75 1480V1665" stroke="white" stroke-opacity="0.3"/>
<path d="M675 1480V1665" stroke="white" stroke-opacity="0.3"/>
<path d="M681.25 1480V1665" stroke="white" stroke-opacity="0.3"/>
<path d="M687.5 1480V1665" stroke="white" stroke-opacity="0.3"/>
<path d="M693.75 1480V1665" stroke="white" stroke-opacity="0.3"/>
<path d="M700 1480V1665" stroke="white" stroke-opacity="0.3"/>
<path d="M706.25 1480V1665" stroke="white" stroke-opacity="0.3"/>
<path d="M712.5 1480V1665" stroke="white" stroke-opacity="0.3"/>
<path d="M718.75 1480V1665" stroke="white" stroke-opacity="0.3"/>
<path d="M725 1480V1665" stroke="white" stroke-opacity="0.3"/>
<path d="M731.25 1480V1665" stroke="white" stroke-opacity="0.3"/>
<path d="M737.5 1480V1665" stroke="white" stroke-opacity="0.3"/>
<path d="M743.75 1480V1665" stroke="white" stroke-opacity="0.3"/>
<path d="M750 1480V1665" stroke="white" stroke-opacity="0.3"/>
<path d="M756.25 1480V1665" stroke="white" stroke-opacity="0.3"/>
<path d="M762.5 1480V1665" stroke="white" stroke-opacity="0.3"/>
<path d="M768.75 1480V1665" stroke="white" stroke-opacity="0.3"/>
<path d="M775 1480V1665" stroke="white" stroke-opacity="0.3"/>
<path d="M781.25 1480V1665" stroke="white" stroke-opacity="0.3"/>
<path d="M787.5 1480V1665" stroke="white" stroke-opacity="0.3"/>
<path d="M793.75 1480V1665" stroke="white" stroke-opacity="0.3"/>
<path d="M800 1480V1665" stroke="white" stroke-opacity="0.3"/>
<path d="M806.25 1480V1665" stroke="white" stroke-opacity="0.3"/>
<path d="M812.5 1480V1665" stroke="white" stroke-opacity="0.3"/>
<path d="M818.75 1480V1665" stroke="white" stroke-opacity="0.3"/>
<path d="M825 1480V1665" stroke="white" stroke-opacity="0.3"/>
<path d="M831.25 1480V1665" stroke="white" stroke-opacity="0.3"/>
<path d="M837.5 1480V1665" stroke="white" stroke-opacity="0.3"/>
<path d="M843.75 1480V1665" stroke="white" stroke-opacity="0.3"/>
<path d="M850 1480V1665" stroke="white" stroke-opacity="0.3"/>
<path d="M856.25 1480V1665" stroke="white" stroke-opacity="0.3"/>
<path d="M862.5 1480V1665" stroke="white" stroke-opacity="0.3"/>
<path d="M868.75 1480V1665" stroke="white" stroke-opacity="0.3"/>
<path d="M875 1480V1665" stroke="white" stroke-opacity="0.3"/>
<path d="M881.25 1480V1665" stroke="white" stroke-opacity="0.3"/>
<path d="M887.5 1480V1665" stroke="white" stroke-opacity="0.3"/>
<path d="M893.75 1480V1665" stroke="white" stroke-opacity="0.3"/>
<path d="M900 1480V1665" stroke="white" stroke-opacity="0.3"/>
<path d="M906.25 1480V1665" stroke="white" stroke-opacity="0.3"/>
<path d="M912.5 1480V1665" stroke="white" stroke-opacity="0.3"/>
<path d="M918.75 1480V1665" stroke="white" stroke-opacity="0.3"/>
<path d="M925 1480V1665" stroke="white" stroke-opacity="0.3"/>
<path d="M931.25 1480V1665" stroke="white" stroke-opacity="0.3"/>
<path d="M937.5 1480V1665" stroke="white" stroke-opacity="0.3"/>
<path d="M943.75 1480V1665" stroke="white" stroke-opacity="0.3"/>
<path d="M950 1480V1665" stroke="white" stroke-opacity="0.3"/>
<path d="M956.25 1480V1665" stroke="white" stroke-opacity="0.3"/>
<path d="M962.5 1480V1665" stroke="white" stroke-opacity="0.3"/>
<path d="M968.75 1480V1665" stroke="white" stroke-opacity="0.3"/>
<path d="M975 1480V1665" stroke="white" stroke-opacity="0.3"/>
<path d="M981.25 1480V1665" stroke="white" stroke-opacity="0.3"/>
<path d="M987.5 1480V1665" stroke="white" stroke-opacity="0.3"/>
<path d="M993.75 1480V1665" stroke="white" stroke-opacity="0.3"/>
<path d="M1000 1480V1665" stroke="white" stroke-opacity="0.3"/>
<path d="M1006.25 1480V1665" stroke="white" stroke-opacity="0.3"/>
<path d="M1012.5 1480V1665" stroke="white" stroke-opacity="0.3"/>
<path d="M1018.75 1480V1665" stroke="white" stroke-opacity="0.3"/>
<path d="M1025 1480V1665" stroke="white" stroke-opacity="0.3"/>
<path d="M1031.25 1480V1665" stroke="white" stroke-opacity="0.3"/>
<path d="M1037.5 1480V1665" stroke="white" stroke-opacity="0.3"/>
<path d="M1043.75 1480V1665" stroke="white" stroke-opacity="0.3"/>
<path d="M1050 1480V1665" stroke="white" stroke-opacity="0.3"/>
<path d="M1056.25 1480V1665" stroke="white" stroke-opacity="0.3"/>
<path d="M1062.5 1480V1665" stroke="white" stroke-opacity="0.3"/>
<path d="M1068.75 1480V1665" stroke="white" stroke-opacity="0.3"/>
<path d="M1075 1480V1665" stroke="white" stroke-opacity="0.3"/>
<path d="M1081.25 1480V1665" stroke="white" stroke-opacity="0.3"/>
<path d="M1087.5 1480V1665" stroke="white" stroke-opacity="0.3"/>
<path d="M1093.75 1480V1665" stroke="white" stroke-opacity="0.3"/>
<path d="M1100 1480V1665" stroke="white" stroke-opacity="0.3"/>
<path d="M1106.25 1480V1665" stroke="white" stroke-opacity="0.3"/>
<path d="M1112.5 1480V1665" stroke="white" stroke-opacity="0.3"/>
<path d="M1118.75 1480V1665" stroke="white" stroke-opacity="0.3"/>
<path d="M1125 1480V1665" stroke="white" stroke-opacity="0.3"/>
<path d="M1131.25 1480V1665" stroke="white" stroke-opacity="0.3"/>
<path d="M1137.5 1480V1665" stroke="white" stroke-opacity="0.3"/>
<path d="M1143.75 1480V1665" stroke="white" stroke-opacity="0.3"/>
<path d="M1150 1480V1665" stroke="white" stroke-opacity="0.3"/>
<path d="M1156.25 1480V1665" stroke="white" stroke-opacity="0.3"/>
<path d="M1162.5 1480V1665" stroke="white" stroke-opacity="0.3"/>
<path d="M1168.75 1480V1665" stroke="white" stroke-opacity="0.3"/>
<path d="M1175 1480V1665" stroke="white" stroke-opacity="0.3"/>
<path d="M1181.25 1480V1665" stroke="white" stroke-opacity="0.3"/>
<path d="M1187.5 1480V1665" stroke="white" stroke-opacity="0.3"/>
<path d="M1193.75 1480V1665" stroke="white" stroke-opacity="0.3"/>
<path d="M1200 1480V1665" stroke="white" stroke-opacity="0.3"/>
<path d="M0 1295V1480" stroke="white" stroke-opacity="0.45"/>
<path d="M12.5 1295V1480" stroke="white" stroke-opacity="0.45"/>
<path d="M25 1295V1480" stroke="white" stroke-opacity="0.45"/>
<path d="M37.5 1295V1480" stroke="white" stroke-opacity="0.45"/>
<path d="M50 1295V1480" stroke="white" stroke-opacity="0.45"/>
<path d="M62.5 1295V1480" stroke="white" stroke-opacity="0.45"/>
<path d="M75 1295V1480" stroke="white" stroke-opacity="0.45"/>
<path d="M87.5 1295V1480" stroke="white" stroke-opacity="0.45"/>
<path d="M100 1295V1480" stroke="white" stroke-opacity="0.45"/>
<path d="M112.5 1295V1480" stroke="white" stroke-opacity="0.45"/>
<path d="M125 1295V1480" stroke="white" stroke-opacity="0.45"/>
<path d="M137.5 1295V1480" stroke="white" stroke-opacity="0.45"/>
<path d="M150 1295V1480" stroke="white" stroke-opacity="0.45"/>
<path d="M162.5 1295V1480" stroke="white" stroke-opacity="0.45"/>
<path d="M175 1295V1480" stroke="white" stroke-opacity="0.45"/>
<path d="M187.5 1295V1480" stroke="white" stroke-opacity="0.45"/>
<path d="M200 1295V1480" stroke="white" stroke-opacity="0.45"/>
<path d="M212.5 1295V1480" stroke="white" stroke-opacity="0.45"/>
<path d="M225 1295V1480" stroke="white" stroke-opacity="0.45"/>
<path d="M237.5 1295V1480" stroke="white" stroke-opacity="0.45"/>
<path d="M250 1295V1480" stroke="white" stroke-opacity="0.45"/>
<path d="M262.5 1295V1480" stroke="white" stroke-opacity="0.45"/>
<path d="M275 1295V1480" stroke="white" stroke-opacity="0.45"/>
<path d="M287.5 1295V1480" stroke="white" stroke-opacity="0.45"/>
<path d="M300 1295V1480" stroke="white" stroke-opacity="0.45"/>
<path d="M312.5 1295V1480" stroke="white" stroke-opacity="0.45"/>
<path d="M325 1295V1480" stroke="white" stroke-opacity="0.45"/>
<path d="M337.5 1295V1480" stroke="white" stroke-opacity="0.45"/>
<path d="M350 1295V1480" stroke="white" stroke-opacity="0.45"/>
<path d="M362.5 1295V1480" stroke="white" stroke-opacity="0.45"/>
<path d="M375 1295V1480" stroke="white" stroke-opacity="0.45"/>
<path d="M387.5 1295V1480" stroke="white" stroke-opacity="0.45"/>
<path d="M400 1295V1480" stroke="white" stroke-opacity="0.45"/>
<path d="M412.5 1295V1480" stroke="white" stroke-opacity="0.45"/>
<path d="M425 1295V1480" stroke="white" stroke-opacity="0.45"/>
<path d="M437.5 1295V1480" stroke="white" stroke-opacity="0.45"/>
<path d="M450 1295V1480" stroke="white" stroke-opacity="0.45"/>
<path d="M462.5 1295V1480" stroke="white" stroke-opacity="0.45"/>
<path d="M475 1295V1480" stroke="white" stroke-opacity="0.45"/>
<path d="M487.5 1295V1480" stroke="white" stroke-opacity="0.45"/>
<path d="M500 1295V1480" stroke="white" stroke-opacity="0.45"/>
<path d="M512.5 1295V1480" stroke="white" stroke-opacity="0.45"/>
<path d="M525 1295V1480" stroke="white" stroke-opacity="0.45"/>
<path d="M537.5 1295V1480" stroke="white" stroke-opacity="0.45"/>
<path d="M550 1295V1480" stroke="white" stroke-opacity="0.45"/>
<path d="M562.5 1295V1480" stroke="white" stroke-opacity="0.45"/>
<path d="M575 1295V1480" stroke="white" stroke-opacity="0.45"/>
<path d="M587.5 1295V1480" stroke="white" stroke-opacity="0.45"/>
<path d="M600 1295V1480" stroke="white" stroke-opacity="0.45"/>
<path d="M612.5 1295V1480" stroke="white" stroke-opacity="0.45"/>
<path d="M625 1295V1480" stroke="white" stroke-opacity="0.45"/>
<path d="M637.5 1295V1480" stroke="white" stroke-opacity="0.45"/>
<path d="M650 1295V1480" stroke="white" stroke-opacity="0.45"/>
<path d="M662.5 1295V1480" stroke="white" stroke-opacity="0.45"/>
<path d="M675 1295V1480" stroke="white" stroke-opacity="0.45"/>
<path d="M687.5 1295V1480" stroke="white" stroke-opacity="0.45"/>
<path d="M700 1295V1480" stroke="white" stroke-opacity="0.45"/>
<path d="M712.5 1295V1480" stroke="white" stroke-opacity="0.45"/>
<path d="M725 1295V1480" stroke="white" stroke-opacity="0.45"/>
<path d="M737.5 1295V1480" stroke="white" stroke-opacity="0.45"/>
<path d="M750 1295V1480" stroke="white" stroke-opacity="0.45"/>
<path d="M762.5 1295V1480" stroke="white" stroke-opacity="0.45"/>
<path d="M775 1295V1480" stroke="white" stroke-opacity="0.45"/>
<path d="M787.5 1295V1480" stroke="white" stroke-opacity="0.45"/>
<path d="M800 1295V1480" stroke="white" stroke-opacity="0.45"/>
<path d="M812.5 1295V1480" stroke="white" stroke-opacity="0.45"/>
<path d="M825 1295V1480" stroke="white" stroke-opacity="0.45"/>
<path d="M837.5 1295V1480" stroke="white" stroke-opacity="0.45"/>
<path d="M850 1295V1480" stroke="white" stroke-opacity="0.45"/>
<path d="M862.5 1295V1480" stroke="white" stroke-opacity="0.45"/>
<path d="M875 1295V1480" stroke="white" stroke-opacity="0.45"/>
<path d="M887.5 1295V1480" stroke="white" stroke-opacity="0.45"/>
<path d="M900 1295V1480" stroke="white" stroke-opacity="0.45"/>
<path d="M912.5 1295V1480" stroke="white" stroke-opacity="0.45"/>
<path d="M925 1295V1480" stroke="white" stroke-opacity="0.45"/>
<path d="M937.5 1295V1480" stroke="white" stroke-opacity="0.45"/>
<path d="M950 1295V1480" stroke="white" stroke-opacity="0.45"/>
<path d="M962.5 1295V1480" stroke="white" stroke-opacity="0.45"/>
<path d="M975 1295V1480" stroke="white" stroke-opacity="0.45"/>
<path d="M987.5 1295V1480" stroke="white" stroke-opacity="0.45"/>
<path d="M1000 1295V1480" stroke="white" stroke-opacity="0.45"/>
<path d="M1012.5 1295V1480" stroke="white" stroke-opacity="0.45"/>
<path d="M1025 1295V1480" stroke="white" stroke-opacity="0.45"/>
<path d="M1037.5 1295V1480" stroke="white" stroke-opacity="0.45"/>
<path d="M1050 1295V1480" stroke="white" stroke-opacity="0.45"/>
<path d="M1062.5 1295V1480" stroke="white" stroke-opacity="0.45"/>
<path d="M1075 1295V1480" stroke="white" stroke-opacity="0.45"/>
<path d="M1087.5 1295V1480" stroke="white" stroke-opacity="0.45"/>
<path d="M1100 1295V1480" stroke="white" stroke-opacity="0.45"/>
<path d="M1112.5 1295V1480" stroke="white" stroke-opacity="0.45"/>
<path d="M1125 1295V1480" stroke="white" stroke-opacity="0.45"/>
<path d="M1137.5 1295V1480" stroke="white" stroke-opacity="0.45"/>
<path d="M1150 1295V1480" stroke="white" stroke-opacity="0.45"/>
<path d="M1162.5 1295V1480" stroke="white" stroke-opacity="0.45"/>
<path d="M1175 1295V1480" stroke="white" stroke-opacity="0.45"/>
<path d="M1187.5 1295V1480" stroke="white" stroke-opacity="0.45"/>
<path d="M1200 1295V1480" stroke="white" stroke-opacity="0.45"/>
<path d="M0 1110V1295" stroke="white" stroke-opacity="0.52"/>
<path d="M25 1110V1295" stroke="white" stroke-opacity="0.52"/>
<path d="M50 1110V1295" stroke="white" stroke-opacity="0.52"/>
<path d="M75 1110V1295" stroke="white" stroke-opacity="0.52"/>
<path d="M100 1110V1295" stroke="white" stroke-opacity="0.52"/>
<path d="M125 1110V1295" stroke="white" stroke-opacity="0.52"/>
<path d="M150 1110V1295" stroke="white" stroke-opacity="0.52"/>
<path d="M175 1110V1295" stroke="white" stroke-opacity="0.52"/>
<path d="M200 1110V1295" stroke="white" stroke-opacity="0.52"/>
<path d="M225 1110V1295" stroke="white" stroke-opacity="0.52"/>
<path d="M250 1110V1295" stroke="white" stroke-opacity="0.52"/>
<path d="M275 1110V1295" stroke="white" stroke-opacity="0.52"/>
<path d="M300 1110V1295" stroke="white" stroke-opacity="0.52"/>
<path d="M325 1110V1295" stroke="white" stroke-opacity="0.52"/>
<path d="M350 1110V1295" stroke="white" stroke-opacity="0.52"/>
<path d="M375 1110V1295" stroke="white" stroke-opacity="0.52"/>
<path d="M400 1110V1295" stroke="white" stroke-opacity="0.52"/>
<path d="M425 1110V1295" stroke="white" stroke-opacity="0.52"/>
<path d="M450 1110V1295" stroke="white" stroke-opacity="0.52"/>
<path d="M475 1110V1295" stroke="white" stroke-opacity="0.52"/>
<path d="M500 1110V1295" stroke="white" stroke-opacity="0.52"/>
<path d="M525 1110V1295" stroke="white" stroke-opacity="0.52"/>
<path d="M550 1110V1295" stroke="white" stroke-opacity="0.52"/>
<path d="M575 1110V1295" stroke="white" stroke-opacity="0.52"/>
<path d="M600 1110V1295" stroke="white" stroke-opacity="0.52"/>
<path d="M625 1110V1295" stroke="white" stroke-opacity="0.52"/>
<path d="M650 1110V1295" stroke="white" stroke-opacity="0.52"/>
<path d="M675 1110V1295" stroke="white" stroke-opacity="0.52"/>
<path d="M700 1110V1295" stroke="white" stroke-opacity="0.52"/>
<path d="M725 1110V1295" stroke="white" stroke-opacity="0.52"/>
<path d="M750 1110V1295" stroke="white" stroke-opacity="0.52"/>
<path d="M775 1110V1295" stroke="white" stroke-opacity="0.52"/>
<path d="M800 1110V1295" stroke="white" stroke-opacity="0.52"/>
<path d="M825 1110V1295" stroke="white" stroke-opacity="0.52"/>
<path d="M850 1110V1295" stroke="white" stroke-opacity="0.52"/>
<path d="M875 1110V1295" stroke="white" stroke-opacity="0.52"/>
<path d="M900 1110V1295" stroke="white" stroke-opacity="0.52"/>
<path d="M925 1110V1295" stroke="white" stroke-opacity="0.52"/>
<path d="M950 1110V1295" stroke="white" stroke-opacity="0.52"/>
<path d="M975 1110V1295" stroke="white" stroke-opacity="0.52"/>
<path d="M1000 1110V1295" stroke="white" stroke-opacity="0.52"/>
<path d="M1025 1110V1295" stroke="white" stroke-opacity="0.52"/>
<path d="M1050 1110V1295" stroke="white" stroke-opacity="0.52"/>
<path d="M1075 1110V1295" stroke="white" stroke-opacity="0.52"/>
<path d="M1100 1110V1295" stroke="white" stroke-opacity="0.52"/>
<path d="M1125 1110V1295" stroke="white" stroke-opacity="0.52"/>
<path d="M1150 1110V1295" stroke="white" stroke-opacity="0.52"/>
<path d="M1175 1110V1295" stroke="white" stroke-opacity="0.52"/>
<path d="M1200 1110V1295" stroke="white" stroke-opacity="0.52"/>
<path d="M0 925V1110" stroke="white" stroke-opacity="0.52"/>
<path d="M50 925V1110" stroke="white" stroke-opacity="0.52"/>
<path d="M100 925V1110" stroke="white" stroke-opacity="0.52"/>
<path d="M150 925V1110" stroke="white" stroke-opacity="0.52"/>
<path d="M200 925V1110" stroke="white" stroke-opacity="0.52"/>
<path d="M250 925V1110" stroke="white" stroke-opacity="0.52"/>
<path d="M300 925V1110" stroke="white" stroke-opacity="0.52"/>
<path d="M350 925V1110" stroke="white" stroke-opacity="0.52"/>
<path d="M400 925V1110" stroke="white" stroke-opacity="0.52"/>
<path d="M450 925V1110" stroke="white" stroke-opacity="0.52"/>
<path d="M500 925V1110" stroke="white" stroke-opacity="0.52"/>
<path d="M550 925V1110" stroke="white" stroke-opacity="0.52"/>
<path d="M600 925V1110" stroke="white" stroke-opacity="0.52"/>
<path d="M650 925V1110" stroke="white" stroke-opacity="0.52"/>
<path d="M700 925V1110" stroke="white" stroke-opacity="0.52"/>
<path d="M750 925V1110" stroke="white" stroke-opacity="0.52"/>
<path d="M800 925V1110" stroke="white" stroke-opacity="0.52"/>
<path d="M850 925V1110" stroke="white" stroke-opacity="0.52"/>
<path d="M900 925V1110" stroke="white" stroke-opacity="0.52"/>
<path d="M950 925V1110" stroke="white" stroke-opacity="0.52"/>
<path d="M1000 925V1110" stroke="white" stroke-opacity="0.52"/>
<path d="M1050 925V1110" stroke="white" stroke-opacity="0.52"/>
<path d="M1100 925V1110" stroke="white" stroke-opacity="0.52"/>
<path d="M1150 925V1110" stroke="white" stroke-opacity="0.52"/>
<path d="M1200 925V1110" stroke="white" stroke-opacity="0.52"/>
<path d="M0 740V925" stroke="white" stroke-width="2"/>
<path d="M100 740V925" stroke="white" stroke-width="2"/>
<path d="M200 740V925" stroke="white" stroke-width="2"/>
<path d="M300 740V925" stroke="white" stroke-width="2"/>
<path d="M400 740V925" stroke="white" stroke-width="2"/>
<path d="M500 740V925" stroke="white" stroke-width="2"/>
<path d="M600 740V925" stroke="white" stroke-width="2"/>
<path d="M700 740V925" stroke="white" stroke-width="2"/>
<path d="M800 740V925" stroke="white" stroke-width="2"/>
<path d="M900 740V925" stroke="white" stroke-width="2"/>
<path d="M1000 740V925" stroke="white" stroke-width="2"/>
<path d="M1100 740V925" stroke="white" stroke-width="2"/>
<path d="M1200 740V925" stroke="white" stroke-width="2"/>
<path d="M0 555V740" stroke="white" stroke-opacity="0.52"/>
<path d="M200 555V740" stroke="white" stroke-opacity="0.52"/>
<path d="M400 555V740" stroke="white" stroke-opacity="0.52"/>
<path d="M600 555V740" stroke="white" stroke-opacity="0.52"/>
<path d="M800 555V740" stroke="white" stroke-opacity="0.52"/>
<path d="M1000 555V740" stroke="white" stroke-opacity="0.52"/>
<path d="M1200 555V740" stroke="white" stroke-opacity="0.52"/>
<path d="M0 370V555" stroke="white" stroke-opacity="0.52"/>
<path d="M400 370V555" stroke="white" stroke-opacity="0.52"/>
<path d="M800 370V555" stroke="white" stroke-opacity="0.52"/>
<path d="M1200 370V555" stroke="white" stroke-opacity="0.52"/>
<path d="M0 185V370" stroke="white" stroke-opacity="0.52"/>
<path d="M800 185V370" stroke="white" stroke-opacity="0.52"/>
<path d="M0 0V185" stroke="white" stroke-opacity="0.52"/>
</g>
<defs>
<clipPath id="clip0_112_87264">
<rect width="1201" height="1665" fill="white"/>
</clipPath>
</defs>
</svg>
