<svg width="20" height="24" viewBox="0 0 20 24" fill="none" xmlns="http://www.w3.org/2000/svg">
<path d="M9.78743 23.2515C9.188 23.141 8.79917 22.7519 8.49657 22.2594C8.15271 21.6995 7.8732 21.1044 7.57163 20.5215C7.34906 20.0912 7.13041 19.6588 6.87545 19.2457C6.49611 18.6312 5.973 18.17 5.36655 17.7935C4.56125 17.2935 3.68603 16.9488 2.79905 16.6283C2.15588 16.3958 1.49766 16.207 0.861096 15.9564C0.636875 15.8681 0.421318 15.7605 0.236495 15.601C0.152129 15.5284 0.0830268 15.4436 0.0347585 15.3432C0.0221757 15.317 -0.00175215 15.2862 0.0271263 15.2586C0.0504354 15.2363 0.0799327 15.2538 0.104892 15.2623C0.420905 15.3691 0.742281 15.4576 1.06551 15.5395C1.98633 15.7728 2.92116 15.9261 3.86466 16.0319C4.5955 16.1138 5.32839 16.1652 6.06294 16.1982C6.89773 16.2357 7.73252 16.2442 8.56773 16.2297C9.29237 16.2171 10.017 16.1916 10.7406 16.1487C11.6218 16.0965 12.5018 16.0284 13.3801 15.9407C14.231 15.8558 15.0804 15.7565 15.9284 15.6441C17.0968 15.4894 18.2606 15.3069 19.4203 15.0979C19.5758 15.0698 19.7305 15.0377 19.8856 15.0078C19.9122 15.0026 19.9444 14.991 19.9636 15.0152C19.9871 15.0449 19.9621 15.074 19.9463 15.0991C19.879 15.2058 19.7872 15.2879 19.6839 15.358C19.3833 15.5618 19.0455 15.6784 18.6989 15.7689C18.0774 15.9313 17.4495 16.0684 16.8412 16.2805C16.1648 16.5165 15.5043 16.7848 14.8845 17.1485C14.1681 17.5687 13.6316 18.1549 13.2324 18.8787C12.8502 19.5718 12.5342 20.2969 12.1788 21.0027C11.9143 21.5279 11.6466 22.0516 11.2736 22.5116C11.0484 22.7897 10.7934 23.0325 10.4547 23.1688C10.3722 23.202 10.2854 23.2241 10.2004 23.2513L9.78743 23.2515Z" fill="white"/>
<path d="M7.71606 15.6677C7.34353 15.6741 6.73502 15.6584 6.12733 15.637C4.97385 15.5966 3.82221 15.5254 2.67574 15.3829C1.81578 15.2758 0.962005 15.137 0.120197 14.9289C-0.0184194 14.8946 -0.0254328 14.8802 0.0399564 14.7492C0.135668 14.5574 0.294293 14.4266 0.47169 14.3175C0.892078 14.0588 1.35682 13.909 1.82795 13.7789C2.61612 13.5608 3.41688 13.39 4.19743 13.1433C4.96044 12.9024 5.68261 12.5821 6.29648 12.0538C6.85404 11.574 7.28 10.9921 7.62035 10.3438C8.13006 9.37346 8.43576 8.33404 8.66637 7.26904C8.89204 6.22674 9.02756 5.17061 9.14101 4.11139C9.20227 3.54083 9.23053 2.9678 9.27199 2.3958C9.31201 1.84401 9.36461 1.29305 9.51189 0.756534C9.56202 0.573774 9.62555 0.395759 9.72291 0.232183C9.8935 -0.0547453 10.3368 -0.0809422 10.5422 0.182677C10.6544 0.326863 10.7143 0.494771 10.7611 0.668248C10.844 0.974979 10.8797 1.28955 10.9016 1.60474C10.961 2.4682 11.016 3.33167 11.107 4.19287C11.2384 5.43774 11.4146 6.67497 11.7116 7.8922C11.9412 8.83323 12.2475 9.74558 12.6982 10.6082C13.1828 11.536 13.9018 12.1965 14.8602 12.6126C15.7315 12.9909 16.6438 13.2329 17.5593 13.4682C18.0917 13.6052 18.6309 13.7164 19.1552 13.8837C19.3791 13.955 19.5938 14.046 19.777 14.1986C19.863 14.2704 19.9306 14.3558 19.9744 14.459C20.0206 14.5681 20.0111 14.5899 19.8945 14.6128C19.5676 14.6772 19.2404 14.7416 18.9125 14.7995C18.0733 14.9476 17.229 15.0615 16.3831 15.1613C15.6634 15.2461 14.9427 15.3195 14.2205 15.382C13.5361 15.4412 12.8511 15.4895 12.1656 15.5349C11.7133 15.5648 11.2601 15.583 10.8071 15.603C9.85596 15.645 8.904 15.6617 7.71606 15.6677Z" fill="white"/>
</svg>
